<svg width="800" height="800" viewBox="0 0 80 80" fill="none" xmlns="http://www.w3.org/2000/svg"><path d="M40.475 70.95c16.83 0 30.475-13.644 30.475-30.475C70.95 23.645 57.306 10 40.475 10 23.645 10 10 23.644 10 40.475c0 16.83 13.644 30.475 30.475 30.475Z" fill="url(#a)"/><path opacity=".5" d="M40.475 70.95c16.83 0 30.475-13.644 30.475-30.475C70.95 23.645 57.306 10 40.475 10 23.645 10 10 23.644 10 40.475c0 16.83 13.644 30.475 30.475 30.475Z" fill="url(#b)"/><path d="M40.475 70.95c16.83 0 30.475-13.644 30.475-30.475C70.95 23.645 57.306 10 40.475 10 23.645 10 10 23.644 10 40.475c0 16.83 13.644 30.475 30.475 30.475Z" fill="url(#c)"/><path d="M21.15 28.662c.072 1.47 1.452 2.312 3.711 2.187 1.936-.108 6.095-1.614 8.766-6.275.484-.86-.358-1.273-.86-.699-1.686 1.918-6.364 4.535-10.147 4.249-1.506-.108-1.47.538-1.47.538Z" fill="url(#d)"/><path d="M30.526 41.766c1.624 0 2.94-1.983 2.94-4.428 0-2.446-1.316-4.428-2.94-4.428-1.624 0-2.94 1.982-2.94 4.428 0 2.445 1.316 4.428 2.94 4.428Z" fill="url(#e)"/><path d="M30.526 34.398c1.255 0 2.366 1.093 2.94 2.725-.036-2.402-1.345-4.32-2.94-4.32-1.596 0-2.904 1.936-2.94 4.32.574-1.614 1.685-2.725 2.94-2.725Z" fill="url(#f)"/><path d="M50.424 41.766c1.624 0 2.94-1.983 2.94-4.428 0-2.446-1.316-4.428-2.94-4.428-1.623 0-2.94 1.982-2.94 4.428 0 2.445 1.316 4.428 2.94 4.428Z" fill="url(#g)"/><path d="M59.8 28.769c-.072 1.47-1.452 2.313-3.711 2.187-1.936-.107-6.095-1.613-8.766-6.274-.484-.86.358-1.273.86-.7 1.685 1.919 6.364 4.536 10.147 4.25 1.506-.108 1.47.537 1.47.537Z" fill="url(#h)"/><path d="M50.424 34.505c-1.255 0-2.366 1.094-2.94 2.725.036-2.402 1.345-4.32 2.94-4.32 1.596 0 2.904 1.936 2.94 4.32-.573-1.613-1.685-2.724-2.94-2.724Z" fill="url(#i)"/><path d="M40.475 51.75c8.945 0 11.796 8.839 9.07 7.458-3.656-1.864-5.969-2.026-9.07-2.026s-5.414.18-9.07 2.026c-2.726 1.38.125-7.457 9.07-7.457Z" fill="#643800"/><path d="M40.475 53.31c5.27 0 8.605 2.976 10.057 5.45.09-1.793-3.191-7.01-10.057-7.01-6.866 0-10.146 5.217-10.057 7.01 1.452-2.456 4.787-5.45 10.057-5.45Z" fill="url(#j)"/><path d="M28.5 56.16c1.81 4.536-1.344 8.659-5.055 9.34-3.711.681-7.78-1.793-8.05-6.436-.627-10.612 11.653-17.084 11.653-17.084s-.968 8.067 1.452 14.18Z" fill="url(#k)"/><path d="M23.57 56.967c-1.47 4.572-8.3 4.858-8.067-.43-.107.807-.143 1.65-.09 2.51.27 4.643 4.339 7.135 8.05 6.435 3.71-.68 6.865-4.804 5.055-9.34-2.438-6.112-1.47-14.197-1.47-14.197-4.41 9.573-2.761 12.782-3.478 15.022Z" fill="url(#l)"/><path d="M26.205 53.58c1.417 7.869-7.457 11.006-10.666 6.542.789 3.944 4.5 5.988 7.906 5.36 3.71-.68 6.866-4.804 5.055-9.34-2.438-6.112-1.47-14.197-1.47-14.197s-1.99 5.18-.825 11.634Z" fill="url(#m)"/><path d="M26.564 58.312c-1.416 5.916-7.924 5.826-10.72 2.886a6.645 6.645 0 0 0 3.101 3.567c7.225 2.241 10.666-5.18 9.663-8.371-.036-.09-.054-.18-.09-.251-.054-.108-.09-.233-.126-.359-2.258-6.059-1.326-13.84-1.326-13.84-2.33 8.857 1.237 9.125-.502 16.368Z" fill="url(#n)"/><path d="M28.5 56.16c1.81 4.536-1.344 8.66-5.055 9.34-3.711.681-7.78-1.792-8.05-6.435-.627-10.613 11.653-17.084 11.653-17.084s-.968 8.067 1.452 14.18Z" fill="url(#o)"/><defs><linearGradient id="h" x1="53.516" y1="25.975" x2="53.304" y2="29.822" gradientUnits="userSpaceOnUse"><stop offset=".001" stop-color="#3C2200"/><stop offset="1" stop-color="#7A4400"/></linearGradient><linearGradient id="d" x1="27.444" y1="25.871" x2="27.656" y2="29.718" gradientUnits="userSpaceOnUse"><stop offset=".001" stop-color="#3C2200"/><stop offset="1" stop-color="#7A4400"/></linearGradient><linearGradient id="f" x1="30.525" y1="32.877" x2="30.525" y2="37.013" gradientUnits="userSpaceOnUse"><stop offset=".001" stop-color="#3C2200"/><stop offset="1" stop-color="#512D00"/></linearGradient><linearGradient id="i" x1="50.425" y1="32.986" x2="50.425" y2="37.122" gradientUnits="userSpaceOnUse"><stop offset=".001" stop-color="#3C2200"/><stop offset="1" stop-color="#512D00"/></linearGradient><linearGradient id="j" x1="40.475" y1="49.446" x2="40.475" y2="56.498" gradientUnits="userSpaceOnUse"><stop offset=".001" stop-color="#3C2200"/><stop offset="1" stop-color="#512D00"/></linearGradient><linearGradient id="k" x1="11.655" y1="48.007" x2="32.203" y2="57.755" gradientUnits="userSpaceOnUse"><stop offset=".072" stop-color="#17BAFD"/><stop offset=".208" stop-color="#D0F1FF"/><stop offset=".668" stop-color="#80D9FD"/><stop offset="1" stop-color="#0098D5"/></linearGradient><linearGradient id="l" x1="38.58" y1="63.906" x2="10.255" y2="44.814" gradientUnits="userSpaceOnUse"><stop stop-color="#D0F1FF"/><stop offset=".668" stop-color="#80D9FD"/><stop offset="1" stop-color="#0098D5"/></linearGradient><linearGradient id="m" x1="14.384" y1="43.54" x2="33.272" y2="65.905" gradientUnits="userSpaceOnUse"><stop offset=".566" stop-color="#80D9FD"/><stop offset="1" stop-color="#0098D5"/></linearGradient><linearGradient id="n" x1="15.938" y1="44.389" x2="31.027" y2="64.731" gradientUnits="userSpaceOnUse"><stop offset=".566" stop-color="#80D9FD"/><stop offset="1" stop-color="#0098D5"/></linearGradient><radialGradient id="e" cx="0" cy="0" r="1" gradientUnits="userSpaceOnUse" gradientTransform="rotate(73.854 -10.097 38.44) scale(4.30588 2.78584)"><stop offset=".001" stop-color="#7A4400"/><stop offset="1" stop-color="#643800"/></radialGradient><radialGradient id="c" cx="0" cy="0" r="1" gradientUnits="userSpaceOnUse" gradientTransform="matrix(8.19053 26.284 -14.1371 4.40536 27.8 55.396)"><stop stop-color="#EA672A" stop-opacity=".5"/><stop offset=".346" stop-color="#DB641B" stop-opacity=".285"/><stop offset=".804" stop-color="#C15E00" stop-opacity="0"/></radialGradient><radialGradient id="g" cx="0" cy="0" r="1" gradientUnits="userSpaceOnUse" gradientTransform="rotate(73.854 -.147 51.68) scale(4.30588 2.78583)"><stop offset=".001" stop-color="#7A4400"/><stop offset="1" stop-color="#643800"/></radialGradient><radialGradient id="b" cx="0" cy="0" r="1" gradientUnits="userSpaceOnUse" gradientTransform="translate(34.479 28.125) scale(28.924)"><stop stop-color="#FFE95F"/><stop offset="1" stop-color="#FFBB47" stop-opacity="0"/></radialGradient><radialGradient id="a" cx="0" cy="0" r="1" gradientUnits="userSpaceOnUse" gradientTransform="translate(34.479 28.125) scale(36.7641)"><stop stop-color="#FFDF30"/><stop offset="1" stop-color="#FFB82E"/></radialGradient><radialGradient id="o" cx="0" cy="0" r="1" gradientUnits="userSpaceOnUse" gradientTransform="matrix(2.21473 -9.31031 5.4818 1.304 20.797 53.9)"><stop stop-color="#fff" stop-opacity=".45"/><stop offset="1" stop-color="#fff" stop-opacity="0"/></radialGradient></defs></svg>