<svg fill="#064e3b" xmlns="http://www.w3.org/2000/svg" viewBox="0 0 32 32" xml:space="preserve" width="800" height="800" stroke="#064e3b" stroke-width="0"><g stroke="none"><path d="M16 31.36a.36.36 0 0 1-.36-.36v-8a.36.36 0 1 1 .72 0v8a.36.36 0 0 1-.36.36zm-1.618-4.174a.37.37 0 0 1-.141-.029c-.999-.427-1.697-1.533-1.697-2.692 0-1.22.518-2.151 1.631-2.932a.361.361 0 0 1 .413.59c-.928.65-1.325 1.352-1.325 2.342 0 .879.518 1.714 1.259 2.03a.36.36 0 0 1-.14.691zm3.235 0a.361.361 0 0 1-.218-.648c.924-.7 1.335-1.204 1.335-2.335 0-1.4-1.379-2.346-2.839-3.346-1.642-1.125-3.339-2.288-3.339-4.272 0-1.106.649-2.115 1.654-2.57a.361.361 0 0 1 .297.657 2.101 2.101 0 0 0-1.231 1.914c0 1.604 1.47 2.612 3.026 3.679 1.55 1.062 3.153 2.159 3.153 3.939 0 1.412-.569 2.111-1.62 2.909a.369.369 0 0 1-.218.073zm0-7.341a.361.361 0 0 1-.218-.648c.924-.699 1.335-1.202 1.335-2.334 0-1.25-1.1-2.138-2.375-3.025v4.164a.36.36 0 1 1-.72 0v-4.659c-1.558-1.072-3.084-2.215-3.084-4.097 0-1.107.649-2.116 1.654-2.57a.361.361 0 0 1 .297.657 2.101 2.101 0 0 0-1.231 1.914c0 1.374 1.078 2.31 2.364 3.22V5.333a2.364 2.364 0 0 1-2-2.333 2.363 2.363 0 0 1 2.36-2.36A2.362 2.362 0 0 1 18.359 3a2.364 2.364 0 0 1-2 2.333v7.63c1.532 1.049 3.095 2.142 3.095 3.9 0 1.413-.569 2.113-1.62 2.909a.363.363 0 0 1-.217.073zM16 4.639A1.642 1.642 0 0 0 17.64 3c0-.904-.735-1.64-1.64-1.64s-1.64.736-1.64 1.64c0 .895.72 1.624 1.61 1.64l.03-.001zm3 8.721a.36.36 0 0 1-.153-.686c1.041-.491 1.888-1.88 1.888-3.098 0-1.894 1.059-2.936 2.979-2.936H30a.36.36 0 1 1 0 .72h-6.286c-1.178 0-1.875.411-2.138 1.28H28a.36.36 0 1 1 0 .72h-6.54c-.004.07-.005.142-.005.216 0 .334-.057.698-.164 1.065h4.688a.36.36 0 1 1 0 .72h-4.963c-.392.819-1.03 1.572-1.862 1.964a.353.353 0 0 1-.154.035zm-6 0a.359.359 0 0 1-.153-.034c-.832-.392-1.47-1.145-1.861-1.964H6a.36.36 0 1 1 0-.72h4.71a3.86 3.86 0 0 1-.163-1.065c0-.074-.002-.146-.005-.216H4a.361.361 0 0 1 0-.721h6.426c-.263-.869-.96-1.28-2.138-1.28H2a.36.36 0 1 1 0-.72h6.288c1.684 0 2.704.801 2.931 2.273a4.463 4.463 0 0 1 .048.663c0 1.218.846 2.608 1.886 3.098a.36.36 0 0 1-.153.686zm4.617-.999a.36.36 0 0 1-.207-.654c.929-.651 1.324-1.352 1.324-2.342 0-.879-.518-1.713-1.259-2.03a.36.36 0 0 1 .284-.662c.998.426 1.696 1.533 1.696 2.692 0 1.22-.519 2.151-1.631 2.932a.368.368 0 0 1-.207.064z"/><path style="fill:none" d="M0 0h32v32H0z"/></g></svg>